# xmcd CD database file
#
# Track frame offsets:
#	150
#	15515
#	33747
#	48473
#	67049
#	86944
#	100855
#	120549
#	136292
#	157538
#	174130
#	194529
#	207558
#	227574
#
# Disc length: 3297 seconds
#
# Revision: 1
# Processed by: cddbd v1.5.2PL0 Copyright (c) Steve Scherf et al.
# Submitted via: CDex 1.70beta2
#
DISCID=b80cdf0e
DTITLE=Piwnica Pod Baranami - Edycja Specjalna - Styczeń 2006
DYEAR=2006
DGENRE=Poetry  - Polskie
TTITLE0=Przychodzimy odchodzimy
TTITLE1=Zapominam
TTITLE2=Niebieska patelnia
TTITLE3=Wiesniacze zycie
TTITLE4=Homel
TTITLE5=Malownicza wyliczanka
TTITLE6=Szewczyk
TTITLE7=Tutaj jestem
TTITLE8=Linoskoczek
TTITLE9=Wszystko sie jeszcze da odkrecic
TTITLE10=Karczma Jurgowska
TTITLE11=Bede z Toba
TTITLE12=Czas
TTITLE13=Dezyderata
EXTD=YEAR: 2006
EXTT0=
EXTT1=
EXTT2=
EXTT3=
EXTT4=
EXTT5=
EXTT6=
EXTT7=
EXTT8=
EXTT9=
EXTT10=
EXTT11=
EXTT12=
EXTT13=
PLAYORDER=
